<?xml version="1.0" standalone="no"?>
<!DOCTYPE svg PUBLIC "-//W3C//DTD SVG 20010904//EN"
 "http://www.w3.org/TR/2001/REC-SVG-20010904/DTD/svg10.dtd">
<svg version="1.0" xmlns="http://www.w3.org/2000/svg"
 width="700.000000pt" height="700.000000pt" viewBox="0 0 700.000000 700.000000"
 preserveAspectRatio="xMidYMid meet">
<metadata>
Created by potrace 1.11, written by Peter Selinger 2001-2013
</metadata>
<g transform="translate(0.000000,700.000000) scale(0.100000,-0.100000)"
fill="#000000" stroke="none">
<path d="M3185 6989 c-648 -61 -1264 -297 -1776 -681 l-130 -98 -177 0 c-201
0 -254 -10 -370 -66 -85 -41 -183 -129 -238 -212 -21 -31 -51 -95 -68 -142
l-31 -85 -5 -305 -5 -305 -36 -70 c-127 -244 -255 -645 -304 -949 -75 -469
-58 -944 50 -1392 226 -943 824 -1742 1665 -2224 708 -406 1536 -550 2355
-409 458 79 936 271 1337 540 504 338 914 805 1185 1351 326 659 436 1397 318
2131 -51 318 -173 701 -304 952 l-36 70 -6 305 c-6 332 -8 346 -73 480 -45 94
-167 215 -266 263 -118 58 -170 67 -372 67 l-177 0 -130 98 c-519 389 -1131
621 -1796 682 -128 12 -480 11 -610 -1z m1785 -1884 c91 -91 169 -165 175
-165 5 0 85 75 177 167 l168 168 92 -93 93 -92 -173 -173 -172 -172 170 -170
170 -170 -92 -92 -93 -93 -170 170 -170 170 -172 -172 -173 -173 -92 93 -93
92 168 168 c92 92 167 172 167 177 0 5 -75 85 -167 177 l-168 168 90 90 c49
49 92 90 95 90 3 0 79 -74 170 -165z m-2450 -405 l0 -130 -615 0 -615 0 0 130
0 130 615 0 615 0 0 -130z m-480 -2735 l0 -245 240 0 240 0 0 -130 0 -130
-240 0 -240 0 0 -245 0 -245 -130 0 -130 0 0 245 0 245 -245 0 -245 0 0 130 0
130 245 0 245 0 0 245 0 245 130 0 130 0 0 -245z m3730 -205 l0 -120 -640 0
-640 0 0 120 0 120 640 0 640 0 0 -120z m0 -570 l0 -120 -640 0 -640 0 0 120
0 120 640 0 640 0 0 -120z"/>
</g>
</svg>
